<svg xmlns="http://www.w3.org/2000/svg" viewBox="0 0 40.89 50.09"><defs><style>.d{fill:none;stroke:#fff;stroke-linecap:round;stroke-linejoin:round;stroke-width:2px;}</style></defs><g id="a"></g><g id="b"><g id="c"><path class="d" d="M39.89,41.77c-.04,.72-.37,1.29-.99,1.71l-7.25,4.88c-.33,.25-.74,.44-1.23,.57-.48,.13-.95,.18-1.38,.16-.03,0-.12-.02-.28-.03-.16-.01-.36-.04-.6-.09-.58-.11-1.5-.39-2.76-.84-1.26-.45-2.75-1.24-4.48-2.38-1.73-1.14-3.64-2.71-5.72-4.73-2.08-2.01-4.21-4.64-6.38-7.87-1.73-2.52-3.12-4.87-4.16-7.07-1.04-2.19-1.83-4.19-2.37-5.99-.54-1.8-.9-3.4-1.07-4.81-.17-1.41-.24-2.61-.21-3.6,.03-.99,.12-1.76,.25-2.3,.14-.54,.21-.85,.22-.91,.14-.42,.36-.82,.66-1.23,.3-.4,.63-.71,.99-.93L10.39,1.4c.51-.35,1.04-.47,1.59-.36,.4,.08,.73,.26,.99,.55,.26,.29,.47,.62,.62,1l3.12,10.24c.18,.54,.16,1.09-.08,1.65-.23,.56-.59,1-1.06,1.32l-2.67,1.81c-.07,.05-.15,.14-.22,.27-.07,.13-.12,.24-.13,.33,0,.66,.13,1.45,.4,2.36,.23,.8,.62,1.8,1.18,3,.56,1.2,1.41,2.62,2.56,4.26,1.11,1.67,2.12,2.99,3.04,3.98,.92,.98,1.7,1.73,2.35,2.23,.65,.5,1.16,.83,1.52,.98l.55,.22c.06,.01,.16,0,.31-.01,.15-.02,.26-.05,.33-.1l3.12-2.16c.64-.38,1.33-.51,2.06-.36,.52,.1,.91,.27,1.18,.51h.05l7.84,6.92c.57,.52,.85,1.1,.86,1.73h0Z"></path></g></g></svg>